<?xml version="1.0" encoding="utf-8"?>
<!-- Generator: Adobe Illustrator 21.0.0, SVG Export Plug-In . SVG Version: 6.00 Build 0)  -->
<svg version="1.1" id="Capa_1" xmlns="http://www.w3.org/2000/svg" xmlns:xlink="http://www.w3.org/1999/xlink" x="0px" y="0px"
	 viewBox="0 0 241 420" style="enable-background:new 0 0 241 420;" xml:space="preserve">
<style type="text/css">
	.st0{fill:#7BC1D2;}
	.st1{fill:#71C0EB;}
	.st2{fill:#6AA5DB;}
	.st3{fill:#5067AC;}
	.st4{fill:#669DD5;}
	.st5{fill:#6AB2E5;}
	.st6{fill:#679CD3;}
	.st7{fill:#536CB0;}
	.st8{fill:#4B5DA5;}
	.st9{fill:#E5EFF6;}
	.st10{fill:#FFFFFF;}
	.st11{fill:#C0E0ED;}
	.st12{fill:#58595B;}
</style>
<g>
	<g>
		<g>
			<polygon class="st0" points="71,37.6 120.9,8.6 167.3,35.2 118.3,67.8 			"/>
			<polygon class="st1" points="5,76 71.1,37.7 118,67.6 57,103.4 			"/>
			<polygon class="st2" points="184.6,104.1 237.4,76.2 167.3,35.1 118.4,67.6 			"/>
			<polygon class="st3" points="184.7,104.1 184.9,171.6 237.7,142.3 237.7,76 			"/>
			<polygon class="st4" points="5,76 56.9,103.5 56.9,171.1 5,141.4 			"/>
			<polygon class="st5" points="5.1,141.4 5.2,209.5 56,238.3 57,171.1 			"/>
			<polygon class="st6" points="57,171.1 121.3,208.3 121.9,276.4 55.7,237.8 			"/>
			<polygon class="st7" points="121.3,208.3 185,171.5 184.9,240 121.9,276.4 			"/>
			<polygon class="st8" points="237.7,210.8 184.9,240 184.9,171.3 237.7,142.2 			"/>
			<polygon class="st9" points="56.8,103.4 121.2,140.8 121.3,208.3 56.9,171.1 			"/>
			<polygon class="st10" points="118.8,68.5 56.7,103.4 121.5,140.6 184.7,104.1 			"/>
			<polygon class="st11" points="184.8,171.6 184.7,104.1 121.4,140.6 121.3,208.3 			"/>
		</g>
	</g>
	<g>
		<g>
			<path class="st12" d="M41.3,296.2l19.9,114.7h-13l-2.6-16.5H24.2l-2.5,16.5h-13L28,296.2H41.3z M26,383.1h17.9l-9.1-57.4
				L26,383.1z"/>
			<path class="st12" d="M120,296.2l-19.6,55.1l21.4,59.6h-14.2L92.9,369l-14.3,41.9H65.8L86.1,350l-18.7-53.7H81l12.7,36.3
				l13.2-36.3L120,296.2L120,296.2z"/>
			<path class="st12" d="M139.1,296.2l14.8,44.5l15.1-44.5h13l-21.5,61.1v53.6H147v-53.6l-21.5-61.1H139.1z"/>
			<path class="st12" d="M232.6,296.2v10.4l-30.7,91.2h30.7v13h-44.5v-12.4l30.6-89.2h-30v-13H232.6z"/>
		</g>
	</g>
</g>
</svg>
